<svg xmlns="http://www.w3.org/2000/svg" viewBox="0 0 900 520" role="img" aria-labelledby="title desc">
  <title id="title">Тематическая иллюстрация легкоатлетического поля</title><desc id="desc">Стилизованная демонстрационная иллюстрация сектора для прыжков и метаний</desc>
  <defs><linearGradient id="field" x1="0" x2="1" y1="0" y2="1"><stop stop-color="#083b70"/><stop offset="1" stop-color="#27a7ae"/></linearGradient></defs>
  <rect width="900" height="520" fill="url(#field)"/><path d="M0 430L900 180V520H0Z" fill="#0b5675"/><path d="M90 440L820 235" stroke="#f5ca67" stroke-width="4"/><path d="M90 440L820 235" stroke="#fff" stroke-width="2" stroke-dasharray="12 12"/><path d="M180 360l260 74 190-122-260-74z" fill="#73c889" opacity=".8"/><path d="M440 238v196M180 360l260-122M630 312L440 434" stroke="#fff" stroke-width="3" opacity=".8"/><circle cx="690" cy="90" r="48" fill="#fff" opacity=".5"/><g fill="#fff"><circle cx="510" cy="178" r="12"/><path d="M503 192l-20 63 16 7 24-40 25 36 14-10-27-59z"/><path d="M495 211l-51 20 7 15 56-11z"/><path d="M532 211l48 16-5 15-56-11z"/><path d="M500 255l-13 70 17 2 17-61z"/><path d="M529 254l53 48-12 12-60-39z"/></g><text x="42" y="70" fill="#fff" font-family="Arial,sans-serif" font-size="22" font-weight="700" letter-spacing="4">ЛЁГКАЯ АТЛЕТИКА</text><text x="44" y="101" fill="#d5f8fa" font-family="Arial,sans-serif" font-size="13" letter-spacing="3">ДЕМОНСТРАЦИОННАЯ ИЛЛЮСТРАЦИЯ</text>
</svg>
